beg_ckt proj :
beg_layout :
  Units: m;
  EgsUnits: mm;
  Resolution: 2.5e-08 units;
  EgsResolution: 0.0001 egsunits;
end_layout;
beg_momMdl :
Mesh: 
  Freq: 6; 
  Cd: 0.00118124401091561; 
  CpWl: 20; 
  Extraction: 1; 
  Expansion: 1; 
;
NdefIA 40: 
  p 1: -0.0002 0.0009 0.000737,
  p 2: -0.0002 0.0016 0.000737,
  p 3: -0.0002 0.0025 0.000737,
  p 4: 0.0002 0.0014 0.000737,
  p 5: 0.0002 0.0016 0.000737,
  p 6: 0.00065 0.0009 0.000737,
  p 7: 0.00085 0.0025 0.000737,
  p 8: 0.0011 0.0018 0.000737,
  p 9: 0.0011 0.002 0.000737,
  p 10: 0.0016 0.0009 0.000737,
  p 11: 0.0016 0.00155 0.000737,
  p 12: 0.0016 0.0025 0.000737,
  p 13: 0.0002 0.0014 0.001137,
  p 14: 0.0002 0.0016 0.001137,
  p 15: 0.0004 0.0014 0.001137,
  p 16: 0.0004 0.0016 0.001137,
  p 17: 0.0009 0.0018 0.001137,
  p 18: 0.0009 0.002 0.001137,
  p 19: 0.0011 0.0018 0.001137,
  p 20: 0.0011 0.002 0.001137,
  p 21: 0.0009 0.002 0.001154,
  p 22: 0.0009 0.0018 0.001154,
  p 23: 0.0011 0.0018 0.001154,
  p 24: 0.0011 0.002 0.001154,
  p 25: 0.0002 0.0016 0.001154,
  p 26: 0.0002 0.0014 0.001154,
  p 27: 0.0004 0.0014 0.001154,
  p 28: 0.0004 0.0016 0.001154,
  p 29: 0.0016 0.0025 0.000727,
  p 30: 0.0011 0.002 0.000727,
  p 31: 0.0011 0.0018 0.000727,
  p 32: 0.0016 0.00155 0.000727,
  p 33: 0.00065 0.0009 0.000727,
  p 34: 0.0016 0.0009 0.000727,
  p 35: 0.00085 0.0025 0.000727,
  p 36: -0.0002 0.0025 0.000727,
  p 37: 0.0002 0.0016 0.000727,
  p 38: 0.0002 0.0014 0.000727,
  p 39: -0.0002 0.0009 0.000727,
  p 40: -0.0002 0.0016 0.000727;
EdefIA 82: 
  s 1: 1 2,
  s 2: 1 4,
  s 3: 1 6,
  s 4: 2 3,
  s 5: 2 4,
  s 6: 2 5,
  s 7: 3 5,
  s 8: 3 7,
  s 9: 4 5,
  s 10: 4 6,
  s 11: 4 8,
  s 12: 5 9,
  s 13: 6 8,
  s 14: 6 10,
  s 15: 7 9,
  s 16: 7 12,
  s 17: 8 9,
  s 18: 8 11,
  s 19: 9 12,
  s 20: 10 11,
  s 21: 11 12,
  s 22: 13 14,
  s 23: 13 15,
  s 24: 14 16,
  s 25: 15 16,
  s 26: 17 18,
  s 27: 17 19,
  s 28: 18 20,
  s 29: 19 20,
  s 30: 22 21,
  s 31: 22 23,
  s 32: 23 24,
  s 33: 21 24,
  s 34: 26 25,
  s 35: 26 27,
  s 36: 27 28,
  s 37: 25 28,
  s 38: 18 21,
  s 39: 17 22,
  s 40: 19 23,
  s 41: 20 24,
  s 42: 14 25,
  s 43: 13 26,
  s 44: 15 27,
  s 45: 16 28,
  s 46: 30 29,
  s 47: 31 30,
  s 48: 31 32,
  s 49: 32 29,
  s 50: 33 31,
  s 51: 33 34,
  s 52: 34 32,
  s 53: 35 29,
  s 54: 35 30,
  s 55: 36 35,
  s 56: 36 37,
  s 57: 37 30,
  s 58: 38 37,
  s 59: 38 31,
  s 60: 38 33,
  s 61: 39 38,
  s 62: 39 33,
  s 63: 40 36,
  s 64: 40 37,
  s 65: 40 38,
  s 66: 39 40,
  s 67: 29 12,
  s 68: 32 11,
  s 69: 34 10,
  s 70: 33 6,
  s 71: 35 7,
  s 72: 36 3,
  s 73: 39 1,
  s 74: 40 2,
  s 75: 12 8,
  s 76: 11 6,
  s 77: 9 3,
  s 78: 9 4,
  s 79: 29 31,
  s 80: 32 33,
  s 81: 30 36,
  s 82: 30 38;
CdefIA 48: 
  c 1: -19 -17 -75,
  c 2: -18 -13 -76,
  c 3: -16 15 19,
  c 4: -15 -8 -77,
  c 5: -12 -9 -78,
  c 6: -11 10 13,
  c 7: -10 -2 3,
  c 8: -7 -4 6,
  c 9: -6 5 9,
  c 10: -5 -1 2,
  c 11: -26 27 29 -28,
  c 12: -22 23 25 -24,
  c 13: -30 31 32 -33,
  c 14: -34 35 36 -37,
  c 15: 26 38 -30 -39,
  c 16: 27 40 -31 -39,
  c 17: 29 41 -32 -40,
  c 18: 28 41 -33 -38,
  c 19: 22 42 -34 -43,
  c 20: 23 44 -35 -43,
  c 21: 25 45 -36 -44,
  c 22: 24 45 -37 -42,
  c 23: -46 -47 -79,
  c 24: -48 -50 -80,
  c 25: -53 54 46,
  c 26: -54 -55 -81,
  c 27: -57 -58 -82,
  c 28: -59 60 50,
  c 29: -60 -61 62,
  c 30: -56 -63 64,
  c 31: -64 65 58,
  c 32: -65 -66 61,
  c 33: 49 67 -21 -68,
  c 34: 51 69 -14 -70,
  c 35: 52 68 -20 -69,
  c 36: 53 67 -16 -71,
  c 37: 55 71 -8 -72,
  c 38: 62 70 -3 -73,
  c 39: 63 72 -4 -74,
  c 40: 66 74 -1 -73,
  c 41: 18 21 75,
  c 42: 14 20 76,
  c 43: 7 12 77,
  c 44: 11 17 78,
  c 45: 48 49 79,
  c 46: 51 52 80,
  c 47: 56 57 81,
  c 48: 59 47 82;
beg_Xinfo :
beg_layer /1:
  Mask: 40;
  Type: metal;
  Level: 4;
  Plane: z = 0.000737;
  Fill: condthickness 58000000 1e-05 M precedence 0;
  CrefRA 14 { 
  1 41 2 42 3 4 43 5 44 6 7 8 9 10 }
end_layer /1;
beg_layer /2:
  Mask: 1;
  Type: metal;
  Level: 5;
  Plane: z = 0.001137;
  Fill: condthickness 58000000 1.7e-05 M precedence 0;
  CrefRA 2 { 
  11 12 }
end_layer /2;
beg_layer /2_expstrip:
  Mask: 1;
  Type: metal;
  Level: 6;
  Plane: z = 0.001154;
  Fill: condthickness 58000000 1.7e-05 M precedence 0;
  CrefRA 2 { 
  13 14 }
end_layer /2_expstrip;
beg_layer /2_expvia_0:
  Mask: 1;
  Type: via;
  Level: 6;
  Plane: z = [0.001137, 0.001154];
  Fill: condthickness 58000000 1.7e-05 M precedence 0;
  CrefRA 8 { 
  15 16 17 18 19 20 21 22 }
end_layer /2_expvia_0;
beg_layer /1_expstrip:
  Mask: 40;
  Type: metal;
  Level: 3;
  Plane: z = 0.000727;
  Fill: condthickness 58000000 1e-05 M precedence 0;
  CrefRA 14 { 
  23 45 24 46 25 26 47 27 48 28 29 30 31 32 }
end_layer /1_expstrip;
beg_layer /1_expvia_0:
  Mask: 40;
  Type: via;
  Level: 4;
  Plane: z = [0.000727, 0.000737];
  Fill: condthickness 58000000 1e-05 M precedence 0;
  CrefRA 8 { 
  33 34 35 36 37 38 39 40 }
end_layer /1_expvia_0;
end_Xinfo;
Overlap: 
  ErefRA 48 { 
  1 3 4 8 14 16 20 21 9 17
  22 29 23 24 25 26 27 28 66 62
  63 55 51 53 52 49 58 47 34 32
  35 37 36 30 31 33 38 39 40 41
  42 43 44 45 67 69 72 73 };
BdefIA 86: 
  b 1: -1 e 2 c 10, e 1 c 7;
  b 2: -1 e 1 c 9, e 0 c 10;
  b 3: -1 e 2 c 8, e 0 c 9;
  b 4: -1 e 0 c 43, e 0 c 8;
  b 5: -1 e 2 c 9, e 1 c 5;
  b 6: -1 e 1 c 6, e 0 c 7;
  b 7: -1 e 0 c 44, e 0 c 6;
  b 8: -1 e 1 c 43, e 0 c 5;
  b 9: -1 e 2 c 6, e 1 c 2;
  b 10: -1 e 1 c 3, e 0 c 4;
  b 11: -1 e 1 c 44, e 1 c 1;
  b 12: -1 e 0 c 41, e 0 c 2;
  b 13: -1 e 2 c 3, e 0 c 1;
  b 14: e 0 c 12;
  b 15: e 2 c 9;
  b 16: e 2 c 11;
  b 17: e 1 c 44;
  b 18: -1 e 0 c 11, e 0 c 15;
  b 19: -1 e 0 c 13, e 2 c 15;
  b 20: -1 e 1 c 11, e 0 c 16;
  b 21: -1 e 1 c 13, e 2 c 16;
  b 22: -1 e 2 c 11, e 0 c 17;
  b 23: -1 e 2 c 13, e 2 c 17;
  b 24: -1 e 3 c 11, e 0 c 18;
  b 25: -1 e 3 c 13, e 2 c 18;
  b 26: -1 e 1 c 15, e 3 c 18;
  b 27: -1 e 3 c 15, e 3 c 16;
  b 28: -1 e 1 c 16, e 3 c 17;
  b 29: -1 e 1 c 17, e 1 c 18;
  b 30: -1 e 0 c 12, e 0 c 19;
  b 31: -1 e 0 c 14, e 2 c 19;
  b 32: -1 e 1 c 12, e 0 c 20;
  b 33: -1 e 1 c 14, e 2 c 20;
  b 34: -1 e 2 c 12, e 0 c 21;
  b 35: -1 e 2 c 14, e 2 c 21;
  b 36: -1 e 3 c 12, e 0 c 22;
  b 37: -1 e 3 c 14, e 2 c 22;
  b 38: -1 e 1 c 19, e 3 c 22;
  b 39: -1 e 3 c 19, e 3 c 20;
  b 40: -1 e 1 c 20, e 3 c 21;
  b 41: -1 e 1 c 21, e 1 c 22;
  b 42: -1 e 0 c 23, e 2 c 25;
  b 43: -1 e 1 c 23, e 1 c 48;
  b 44: -1 e 0 c 45, e 0 c 24;
  b 45: -1 e 1 c 41, e 2 c 33;
  b 46: -1 e 1 c 45, e 0 c 33;
  b 47: -1 e 1 c 33, e 1 c 36;
  b 48: -1 e 3 c 33, e 1 c 35;
  b 49: -1 e 1 c 24, e 2 c 28;
  b 50: -1 e 0 c 42, e 2 c 34;
  b 51: -1 e 0 c 46, e 0 c 34;
  b 52: -1 e 1 c 42, e 2 c 35;
  b 53: -1 e 1 c 46, e 0 c 35;
  b 54: -1 e 3 c 34, e 1 c 38;
  b 55: -1 e 1 c 34, e 3 c 35;
  b 56: -1 e 0 c 3, e 2 c 36;
  b 57: -1 e 0 c 25, e 0 c 36;
  b 58: -1 e 1 c 25, e 0 c 26;
  b 59: -1 e 3 c 36, e 1 c 37;
  b 60: -1 e 1 c 4, e 2 c 37;
  b 61: -1 e 1 c 26, e 0 c 37;
  b 62: -1 e 0 c 47, e 0 c 30;
  b 63: -1 e 1 c 47, e 0 c 27;
  b 64: -1 e 3 c 37, e 1 c 39;
  b 65: -1 e 1 c 27, e 2 c 31;
  b 66: -1 e 0 c 48, e 0 c 28;
  b 67: -1 e 1 c 28, e 0 c 29;
  b 68: -1 e 1 c 29, e 2 c 32;
  b 69: -1 e 2 c 7, e 2 c 38;
  b 70: -1 e 2 c 29, e 0 c 38;
  b 71: -1 e 3 c 38, e 3 c 40;
  b 72: -1 e 1 c 8, e 2 c 39;
  b 73: -1 e 1 c 30, e 0 c 39;
  b 74: -1 e 2 c 30, e 0 c 31;
  b 75: -1 e 3 c 39, e 1 c 40;
  b 76: -1 e 1 c 31, e 0 c 32;
  b 77: -1 e 1 c 10, e 2 c 40;
  b 78: -1 e 1 c 32, e 0 c 40;
  b 79: -1 e 2 c 1, e 2 c 41;
  b 80: -1 e 2 c 2, e 2 c 42;
  b 81: -1 e 2 c 4, e 2 c 43;
  b 82: -1 e 2 c 5, e 2 c 44;
  b 83: -1 e 2 c 23, e 2 c 45;
  b 84: -1 e 2 c 24, e 2 c 46;
  b 85: -1 e 2 c 26, e 2 c 47;
  b 86: -1 e 2 c 27, e 2 c 48;
;
PdefRA 2 {
GdefRA 2 /Zd 1 {50 0} {
  Prt 1 : ErefRA 1 { 22 };
  Prt -1 : ErefRA 1 { 9 };
}
GdefRA 2 /Zd 1 {50 0} {
  Prt 2 : ErefRA 1 { 29 };
  Prt -2 : ErefRA 1 { 17 };
}
}
end_momMdl;
end_ckt proj;
